<?xml version="1.0" encoding="UTF-8" standalone="no"?>
<!-- Uploaded to: SVG Repo, www.svgrepo.com, Generator: SVG Repo Mixer Tools -->

<svg
   fill="#000000"
   height="800px"
   width="800px"
   version="1.1"
   viewBox="0 0 463.003 463.003"
   enable-background="new 0 0 463.003 463.003"
   id="svg1"
   sodipodi:docname="icon.svg"
   inkscape:version="1.3.2 (091e20ef0f, 2023-11-25, custom)"
   xmlns:inkscape="http://www.inkscape.org/namespaces/inkscape"
   xmlns:sodipodi="http://sodipodi.sourceforge.net/DTD/sodipodi-0.dtd"
   xmlns="http://www.w3.org/2000/svg"
   xmlns:svg="http://www.w3.org/2000/svg">
  <defs
     id="defs1" />
  <sodipodi:namedview
     id="namedview1"
     pagecolor="#505050"
     bordercolor="#eeeeee"
     borderopacity="1"
     inkscape:showpageshadow="0"
     inkscape:pageopacity="0"
     inkscape:pagecheckerboard="0"
     inkscape:deskcolor="#505050"
     inkscape:zoom="0.5939697"
     inkscape:cx="399.85205"
     inkscape:cy="400.69384"
     inkscape:window-width="1600"
     inkscape:window-height="876"
     inkscape:window-x="0"
     inkscape:window-y="0"
     inkscape:window-maximized="1"
     inkscape:current-layer="svg1" />
  <path
     id="path1-5"
     style="fill:#ff1493;fill-opacity:1"
     d="m 258.53906,-1.6777344 c -15.69075,0.4622281 -31.48404,3.3661869 -45.79351,9.9848909 -8.29268,3.8415165 -16.02279,8.9596005 -22.61664,15.3022185 -9.23262,-6.861124 -20.29577,-10.82309 -31.4844,-13.111124 -10.85168,-2.1822935 -21.98929,-2.9144212 -33.03709,-2.295126 -2.61576,0.2024979 -5.35401,0.3284695 -7.74414,1.5175781 -2.82849,1.4620519 -4.77351,4.3350449 -5.32455,7.4441569 -1.86934,6.434844 -5.52042,12.197819 -9.02957,17.799361 -5.970705,9.36504 -12.596076,18.482431 -16.551074,28.946555 -2.007408,5.420413 -3.153428,11.248777 -2.659258,17.040396 -15.623673,8.521877 -29.957348,19.185628 -43.716797,30.419918 -8.042011,6.62847 -15.896658,13.49087 -23.418055,20.70555 -2.094904,2.32602 -2.574952,5.54253 -3.537023,8.41359 -4.6885661,16.07417 -7.7773561,32.62772 -9.0466036,49.32722 -1.1235818,15.15523 -0.5875995,30.557 2.9670689,45.37939 1.8929272,7.82905 4.6460947,15.47877 8.5072697,22.55902 -4.443157,8.43178 -6.3444064,18.11135 -5.740739,27.6041 0.514048,9.86969 3.394773,19.3835 5.314502,29.00947 0.480848,2.48577 0.877511,4.9639 1.064346,7.53568 0.168299,2.20729 0.153067,4.25821 -0.07756,6.46403 -0.24004,2.69351 -1.137349,5.25833 -1.938054,7.81888 -0.816511,3.52899 0.507532,7.47545 3.40102,9.69169 4.86758,4.29577 10.370744,7.79709 15.9194,11.13655 12.919846,7.65702 26.802267,13.78589 41.336384,17.63413 5.013569,1.30277 10.106847,2.31502 15.251954,2.92773 3.386174,12.36321 11.107332,23.19782 20.639362,31.61854 10.31081,9.16421 22.55603,15.87995 35.21002,21.22536 5.40968,2.25509 11.0225,4.24455 16.41429,6.38657 11.47756,4.58468 22.53205,10.02918 33.58272,15.52892 9.84621,4.86656 19.99366,9.34127 30.75505,11.74421 7.67916,1.79667 15.66269,2.29005 23.49592,1.34023 14.5364,-1.6992 28.287,-7.71793 40.34407,-15.85752 4.49499,-3.01558 8.73106,-6.39539 12.88021,-9.86342 4.73719,-3.62405 9.91243,-6.44236 15.05077,-9.48287 9.9715,-5.80891 19.86256,-12.12249 27.75827,-20.64755 7.75198,-8.24647 13.20156,-18.66184 15.36351,-29.78363 1.1038,-5.44877 1.51631,-11.02598 1.38276,-16.57993 2.60082,-1.46535 5.16168,-3.00507 7.64844,-4.65625 4.10107,2.69889 9.24927,3.78901 14.08929,2.92526 6.01491,-0.99982 11.26734,-4.42673 15.93285,-8.18458 6.64894,-5.50444 12.32604,-12.05334 17.94362,-18.57538 6.6361,-7.73407 13.04822,-15.68217 20.40861,-22.7223 2.6882,-2.51157 5.63005,-4.99557 8.88374,-6.84077 1.77192,-0.91571 3.94978,-1.64254 5.50361,-3.10809 3.15786,-2.78267 4.64163,-7.02783 4.7785,-11.1551 0.2651,-5.30438 -0.88683,-10.56048 -2.28636,-15.64412 -3.02813,-10.5941 -7.831,-20.66394 -13.9697,-29.80452 -3.56924,-5.26784 -7.68791,-10.20289 -12.53221,-14.34743 6.14881,-14.00866 12.56651,-27.92713 18.52132,-42.03184 1.24847,-3.05783 2.60747,-6.13652 3.14274,-9.41738 0.2106,-2.62182 -0.84099,-5.11285 -1.47038,-7.60929 -4.34624,-14.62701 -12.76082,-27.85639 -23.41303,-38.70608 -11.96628,-12.25664 -26.47888,-21.84637 -41.96656,-29.06051 -1.68231,-0.77305 -3.3784,-1.51548 -5.09143,-2.21787 C 373.2917,87.510631 363.10725,74.738356 350.53629,65.124221 345.92681,61.555046 340.95244,58.496313 335.9177,55.571169 325.74781,49.378184 316.4481,41.765718 308.30054,33.038415 301.6977,25.923372 295.75336,18.077072 290.95874,9.5742528 289.79602,7.6607147 289.00376,5.5493846 287.81463,3.6540439 286.09986,1.0274561 283.02219,-0.41814738 279.95486,-0.64931075 272.86007,-1.573259 265.68879,-1.8622912 258.53906,-1.6777344 Z m 4.47461,19.5859374 c 3.10682,0.02328 6.19728,0.137514 9.33793,0.38148 0.49268,0.07182 1.14356,-0.09424 1.24215,0.542348 4.4093,7.825431 9.55487,15.242033 15.38073,22.082537 10.76618,12.739942 23.6733,23.649821 37.9973,32.19277 4.38372,2.50655 8.67084,5.207768 12.60375,8.386401 10.18845,8.055186 18.29123,18.767741 23.03688,30.873421 3.35119,8.4344 5.09836,17.47729 5.35634,26.54104 0.0228,1.19487 0.038,2.61172 0.0101,3.78145 -0.0714,3.79211 -0.4227,7.57712 -1.01983,11.32207 -9.86062,-7.92734 -22.19989,-12.40955 -34.71722,-13.71926 -2.51577,-0.2741 -5.04519,-0.42617 -7.57574,-0.45652 3.97156,-6.64125 5.58665,-14.72467 4.11675,-22.35212 -1.1,-5.92147 -3.5766,-11.55794 -6.95097,-16.5309 -4.43237,-6.390232 -10.78632,-11.273845 -17.79176,-14.555987 -10.02867,-4.797064 -20.98223,-7.082265 -31.73566,-9.622674 -11.92393,-2.752589 -23.81581,-5.597502 -35.27628,-9.968919 -8.37111,-3.155131 -16.44462,-7.083205 -24.12483,-11.667931 -5.51754,-3.10933 -11.33401,-5.704697 -17.37983,-7.602253 6.03673,-9.166888 14.76835,-16.441118 24.68711,-21.08516 7.26148,-3.452798 15.067,-5.65901 22.98281,-6.987105 1.85306,-0.308641 4.01213,-0.609837 5.87891,-0.816407 4.59283,-0.508125 9.29214,-0.744499 13.9414,-0.738281 z M 132.7168,27.59375 c 4.13919,0.02617 8.42371,0.237468 12.53718,0.68541 3.42647,0.361894 7.08536,0.928941 10.44826,1.659679 7.78236,1.682528 15.52961,4.2923 22.06924,8.943973 -1.05405,1.686541 -2.04026,3.415866 -2.95898,5.179688 -14.2758,-0.35943 -28.46409,3.94898 -40.59032,11.381063 -6.66681,4.056075 -12.76595,9.023951 -18.18116,14.638468 -3.77948,0.237263 -7.50836,1.009953 -11.14063,2.0625 2.03275,-6.204975 5.60491,-11.740814 9.05983,-17.228933 5.66425,-8.832288 11.83365,-17.472394 15.74095,-27.276926 1.02192,-0.038 1.96494,-0.03478 3.01563,-0.04492 z m 40.80078,36.236328 c 9.47,0.0069 18.79356,2.70231 27.17011,7.028642 3.36972,1.694799 6.52126,3.747354 9.90245,5.498624 13.54211,7.216791 28.11963,12.316288 42.96447,16.099356 11.25759,2.936382 22.73804,5.024875 33.85601,8.49077 2.51444,0.80879 5.01315,1.69836 7.34764,2.78443 4.35289,1.99544 8.52585,4.77799 11.18006,8.85298 1.81863,2.74597 3.1925,5.8635 3.63692,9.1432 0.43984,3.6241 -0.79121,7.32747 -3.1135,10.11467 -0.56452,0.70149 -1.17669,1.36488 -1.83674,1.97756 -8.94635,-6.19349 -19.446,-10.5358 -30.4082,-11.00976 -5.28342,-0.2147 -10.61428,0.47396 -15.63868,2.13672 -14.25266,-12.7254 -32.86804,-20.08807 -51.8045,-21.83436 -23.41585,-2.20656 -47.65943,4.31545 -66.50265,18.46973 -0.3654,0.5251 -0.8453,0.28575 -1.3237,0.0756 -7.90857,-2.68883 -16.5913,-2.09611 -24.51426,0.21639 -1.78917,0.51508 -3.55324,1.11659 -5.28848,1.79143 0.23215,-1.73555 0.53232,-3.29584 0.95182,-5.01996 1.11703,-4.52729 2.83232,-8.87641 4.851,-13.02291 4.72344,-9.488192 11.09006,-18.19369 18.87454,-25.400799 4.63402,-4.30291 9.89626,-7.929915 15.5785,-10.706726 0.88654,-0.417083 2.02214,-0.945064 3.02105,-1.366701 6.66163,-2.80611 13.8594,-4.342082 21.09614,-4.318846 z M 97.738281,96.123047 c -4.98683,10.215643 -8.425377,21.407123 -8.475105,32.850383 0.0051,1.89449 0.103137,3.79043 0.336433,5.6711 -15.070309,11.06633 -27.343722,25.7441 -36.242936,42.14558 -10.142333,18.75225 -15.7096,40.1841 -14.648758,61.55618 0.345306,7.64559 1.484207,15.28278 3.739351,22.60683 -6.737934,-6.87974 -11.45654,-15.69857 -14.30238,-24.91975 -1.072875,-3.44381 -1.904061,-6.91719 -2.542559,-10.42203 -0.908661,-4.95661 -1.458125,-10.01489 -1.701696,-14.96541 -0.203099,-3.90179 -0.211035,-7.76818 -0.115475,-11.6889 0.122919,-4.02644 0.38824,-8.29792 0.798937,-12.33308 0.77036,-7.84718 1.995418,-15.62788 3.59596,-23.31421 1.182102,-5.63814 2.532606,-11.14422 4.105064,-16.64867 0.279937,-0.8881 0.454569,-1.85559 0.894139,-2.72075 13.707577,-12.5771 28.034464,-24.45459 43.321378,-35.05427 6.838868,-4.7126 13.826276,-9.114704 21.268897,-12.825503 z M 198.4082,122.43945 c 13.58719,0.0338 27.39372,3.66212 38.93716,11.01655 7.04889,4.45606 13.25382,10.27482 18.0062,17.13775 0.26605,0.38191 0.62729,0.91053 0.91602,1.35742 -15.76398,-8.4619 -34.21658,-12.19032 -51.98242,-9.57812 -11.63653,1.75153 -23.03008,6.36582 -31.91076,14.20104 -9.78493,8.60443 -18.07928,19.21908 -22.6695,31.50221 -3.8669,10.30816 -4.74639,21.78925 -2.02917,32.49166 3.97936,16.00681 15.31877,30.07787 30.24615,37.15079 -3.67811,0.94134 -7.4433,1.56149 -11.28059,1.8133 -1.79981,0.12058 -3.57283,0.1444 -5.28973,0.10076 -9.76118,-0.24439 -19.3659,-3.2448 -27.71653,-8.26357 -2.5081,-1.48884 -4.74202,-3.01376 -7.05264,-4.80386 -2.956,-2.30481 -5.91678,-4.94106 -8.23556,-7.99239 -4.3309,-5.49844 -7.01595,-12.22999 -7.78808,-19.17864 -0.49221,-4.06302 -0.41087,-8.0166 0.10445,-12.07056 0.70788,-5.57457 2.12705,-11.21881 3.96613,-16.59435 0.95755,-2.82725 1.9882,-5.51566 3.18143,-8.2757 1.55614,-3.60785 3.33674,-7.25175 5.24695,-10.66753 1.69239,-3.06549 3.53796,-6.08624 5.45055,-8.93687 2.33364,-3.4932 4.89071,-6.90625 7.543,-10.07253 4.15149,-4.94508 8.6742,-9.57269 13.63362,-13.66803 12.92626,-10.47483 29.45721,-16.12476 46.0241,-16.63417 0.82718,-0.0192 1.81767,-0.0356 2.69922,-0.0352 z m 188.62891,5.18555 c 12.09658,7.00834 23.42414,15.85009 32.07617,26.95508 5.54061,7.14297 9.96973,15.25405 12.37891,23.98828 -3.98071,9.70503 -8.34475,19.25684 -12.58594,28.84692 -5.4365,12.23152 -10.91221,24.44574 -16.07813,36.7937 -3.56715,-10.88275 -7.24894,-21.77104 -9.48828,-33.02343 -0.40577,-2.15287 -0.82119,-4.49818 -1.11048,-6.74457 -1.42523,-11.08741 -4.36411,-22.11548 -9.81334,-31.93512 5.16744,-14.3029 6.26413,-29.88408 4.27802,-44.90246 -0.14443,-0.43156 0.20287,0.0161 0.34307,0.0216 z m -266.83399,13.82422 c -9.99607,12.45892 -18.3137,26.3693 -23.791588,41.40502 -4.463407,12.33267 -6.859318,25.62646 -5.377694,38.738 1.110381,9.89502 4.697199,19.55019 10.647272,27.56303 5.53505,7.52504 12.90576,13.51265 20.81498,18.39161 -2.41845,8.99416 -2.17399,18.49539 -0.71093,27.62711 3.67374,22.41528 15.39014,43.47749 32.68598,58.23208 13.45105,11.4371 30.25154,18.76803 47.70464,21.25995 -6.07167,3.5733 -12.96223,5.76316 -19.99609,6.24609 -1.42206,0.10268 -2.91576,0.13409 -4.42578,0.0977 -2.27743,-0.0505 -4.81628,-0.30518 -7.0625,-0.6836 -6.81505,-1.13856 -13.39425,-3.59085 -19.42969,-6.82617 -11.34937,-6.10675 -21.08555,-14.87184 -29.35547,-24.6875 -2.12408,-2.53259 -4.22358,-5.22365 -6.16919,-7.92275 -3.8482,-5.30484 -7.33436,-10.92209 -10.46256,-16.61426 -2.3516,-4.22294 -4.37313,-8.6141 -6.467392,-12.96593 -3.965516,-8.19596 -9.158587,-15.74152 -14.971695,-22.73041 -6.32955,-7.76601 -13.623646,-14.86515 -18.540491,-23.68267 -3.939113,-7.06629 -5.914688,-15.06586 -6.666016,-23.07812 -0.183306,-2.02873 -0.326443,-4.26897 -0.380896,-6.42687 -0.161654,-7.83506 0.742497,-15.78375 2.587991,-23.45674 1.380383,-5.79179 3.293064,-11.45039 5.663264,-16.96378 4.763357,-11.03792 11.415542,-21.49508 19.49289,-30.5541 6.405788,-7.16648 13.894272,-13.69708 22.284025,-18.58077 4.0167,-2.30771 8.27794,-4.25542 12.77265,-5.42008 -0.2819,0.3444 -0.5638,0.6888 -0.84571,1.0332 z m 153.46876,0.93945 c 1.22764,0.0609 2.79288,0.24105 4.16992,0.52149 7.71154,1.57829 14.599,5.82736 20.56877,10.82474 8.90601,7.52144 15.94112,17.03494 21.62459,27.15768 7.6624,13.83658 12.82797,29.23423 14.87317,44.98546 0.5837,4.50476 0.90749,9.07024 0.9307,13.55318 0.0747,9.94358 -1.27532,20.07738 -4.3657,29.61952 -3.60003,11.33235 -9.14127,22.16229 -15.95701,31.8917 -6.82716,9.76902 -15.12902,18.69528 -24.38143,26.33277 -7.79146,6.43587 -16.4273,12.07391 -25.52052,16.61018 -8.60816,4.29178 -17.84432,7.71759 -27.30382,9.80823 -5.79225,1.28441 -11.6589,2.09415 -17.62747,2.33295 -9.94285,0.43533 -20.07836,-0.86202 -29.56589,-4.10274 -7.35571,-2.52069 -14.43793,-6.18471 -20.69079,-10.91681 -1.65652,-1.2611 -3.29991,-2.60569 -4.78038,-3.94663 -7.0187,-6.31434 -12.77359,-13.99172 -17.05227,-22.39828 -1.75345,-3.44942 -3.32849,-7.22654 -4.55165,-10.90151 -1.37373,-4.15566 -2.43379,-8.39241 -3.07335,-12.68248 -0.39598,-2.6535 -0.65866,-5.56771 -0.6813,-8.24324 -0.014,-2.39489 0.0879,-4.72974 0.45669,-6.96574 2.19103,0.67473 4.40922,1.26143 6.65234,1.73633 5.66788,13.13912 16.18149,23.80577 28.4621,30.94445 15.38404,8.99782 33.98587,12.41208 51.54193,9.24224 14.21983,-2.52382 27.52939,-9.20704 38.58423,-18.42416 7.14159,-5.89657 13.33112,-12.86071 18.86096,-20.26839 7.84396,-10.36047 14.57709,-21.82514 17.93107,-34.46716 3.05637,-11.36162 2.99932,-23.53345 -0.17732,-34.86352 -3.13258,-11.439 -8.99614,-21.96988 -16.07132,-31.42411 -0.69317,-0.65119 -0.48197,-1.6578 -0.71382,-2.49905 -1.94083,-11.81793 -6.06628,-23.32602 -12.47056,-33.46882 0.10937,0.004 0.21875,0.008 0.32813,0.0117 z m 57.2246,17.48633 c 9.35258,1.09713 18.60926,4.62666 25.63055,11.02395 3.77061,3.39986 6.84834,7.5548 9.18391,11.99167 3.98185,7.5274 6.00819,15.9173 7.08646,24.31774 2.34533,17.71252 8.7314,34.5043 14.06659,51.45707 1.49095,4.70611 2.88166,9.51848 3.97195,14.22715 0.58841,2.5634 1.07795,5.04731 1.46709,7.70121 0.39619,2.75642 0.68676,5.73683 0.68233,8.60188 0.0278,1.75383 -0.0929,3.66471 -0.27442,5.33949 -0.19414,1.55687 -0.41545,3.01229 -0.83803,4.58586 -1.16202,4.44482 -3.17378,8.60492 -5.14164,12.73675 -4.60199,9.3578 -10.8493,18.00614 -18.88913,24.70876 -7.81869,6.63916 -17.03629,11.39916 -26.20038,15.79535 -10.92198,5.1762 -21.96472,10.16492 -32.35678,16.36995 -8.57935,5.03494 -16.66528,10.8945 -24.16734,17.4239 -3.59331,3.21841 -7.77741,5.95132 -12.11373,7.88724 -3.54901,1.58336 -7.30094,2.71861 -11.14258,3.31641 -1.57745,0.24504 -3.38321,0.42352 -5.06209,0.49091 -2.18332,0.0881 -4.24291,0.0363 -6.44169,-0.1694 -4.44158,-0.42009 -8.70117,-1.39667 -12.90848,-2.87484 -2.52867,-0.88819 -4.93901,-1.92522 -7.35727,-3.14785 -2.96394,-1.50493 -5.9453,-3.32491 -8.68929,-5.30758 -0.55136,-0.33791 -1.08461,-0.68192 -0.24431,-1.04593 3.96796,-3.18946 7.61289,-6.7731 10.94141,-10.62305 22.79228,-3.0616 44.47899,-12.46759 63.12072,-25.80113 23.65478,-16.9583 42.67439,-40.66776 52.93651,-67.99312 4.23515,-11.23942 6.72471,-23.13798 7.25707,-35.14056 1.0212,-21.37123 -3.55185,-42.83511 -12.18453,-62.35166 -3.65999,-8.27163 -8.08621,-16.20762 -13.26454,-23.62564 0.31055,0.0352 0.6211,0.0703 0.93164,0.10547 z m -115.26757,1.29297 c 3.02031,0.0184 6.03809,0.24516 9.02734,0.67773 1.08241,0.15867 2.41441,0.39043 3.58398,0.6211 11.17654,2.25364 21.73213,7.38871 30.48633,14.68164 1.41182,1.18333 2.93755,2.54667 4.30126,3.8994 5.56734,5.50455 10.17353,11.91474 14.16934,18.62734 4.82464,8.27154 8.24132,17.61098 8.34762,27.27451 0.12097,8.40837 -2.27391,16.69137 -6.05844,24.14789 -3.70982,7.4075 -8.57623,14.133 -13.72965,20.56355 -6.36662,7.9067 -13.92041,14.98643 -22.80567,19.98307 -3.21421,1.81184 -6.47147,3.3033 -9.95688,4.514 -3.51541,1.21271 -7.30604,2.14533 -11.05864,2.63689 -2.27986,0.30404 -4.44506,0.46412 -6.73823,0.50569 -0.91016,0.005 -1.97072,0.005 -2.91094,-0.0327 -8.29528,-0.27453 -16.50135,-2.43831 -23.90156,-6.18405 -1.47025,-0.75131 -3.09741,-1.67127 -4.56836,-2.59139 -4.94574,-3.12139 -9.42975,-7.01643 -13.0293,-11.63712 12.07385,-1.22739 23.80979,-5.2006 34.33203,-11.21094 11.65647,2.39653 24.36046,-0.92502 33.26501,-8.84555 7.8248,-6.81785 12.74298,-16.8699 13.21554,-27.24788 0.57762,-10.73007 -3.49411,-21.64382 -11.081,-29.2752 -7.15932,-7.31456 -17.28821,-11.6569 -27.53933,-11.62993 -10.02156,-0.0558 -20.03314,3.88515 -27.20012,10.91594 -7.48906,7.20846 -11.94586,17.507 -11.86433,27.92051 0.0895,0.72214 -0.0823,0.67216 -0.45212,0.0755 -2.32372,-2.96739 -4.24536,-6.41784 -5.5331,-9.86454 -0.84524,-2.2676 -1.47759,-4.66087 -1.8259,-6.97161 -0.29148,-1.86069 -0.41884,-3.80678 -0.3803,-5.59438 0.0133,-1.79379 0.21728,-3.83311 0.55247,-5.69347 0.57777,-3.22533 1.60601,-6.35944 2.94279,-9.34796 0.2738,-0.57374 0.67596,-1.44916 1.02963,-2.12372 3.85942,-7.42022 9.46561,-13.82912 15.79499,-19.24826 5.32805,-4.45295 11.9885,-7.1869 18.70468,-8.51279 3.58093,-0.70726 7.23236,-1.02669 10.88086,-1.0332 z m -1.9336,49.13476 c 7.35225,0.25065 14.27567,5.19025 16.94272,12.04173 2.55434,6.2721 1.50225,13.87252 -2.77273,19.14719 -3.72318,4.74718 -9.77208,7.53756 -15.80223,7.27385 -7.02681,-0.20939 -13.73961,-4.61779 -16.67909,-11.01154 -2.67728,-5.65381 -2.42427,-12.6161 0.81569,-17.9914 3.11975,-5.32046 8.90087,-9.0055 15.07593,-9.41352 0.80487,-0.072 1.61256,-0.0637 2.41971,-0.0463 z m 208.33594,40.625 c 5.49218,6.5442 9.5495,14.17907 12.75436,22.06574 1.82337,4.65799 3.48707,9.43479 4.20986,14.40235 0.28449,0.6438 -0.49378,0.73538 -0.89214,1.03657 -7.87052,4.59764 -14.30039,11.19575 -20.41966,17.8569 -5.11598,5.64345 -9.93981,11.53231 -14.91805,17.29274 2.8302,-5.35301 5.32317,-10.89811 7.29595,-16.62433 3.09895,-9.67387 3.1949,-20.07778 1.58134,-30.0382 0.0673,-0.58297 0.53236,-1.11251 0.65403,-1.71552 0.58879,-1.88002 0.97786,-3.81878 1.69497,-5.6602 1.93257,-5.70097 4.31111,-11.40411 6.62852,-17.02469 0.30401,-0.72365 0.60153,-1.45004 0.91082,-2.17143 0.16667,0.19336 0.33333,0.38672 0.5,0.58007 z M 30.744141,276.93359 c 9.135175,8.54765 20.515547,14.48317 32.494871,17.92144 0.664637,0.36275 1.044704,1.14091 1.599313,1.664 5.203762,5.99908 10.179118,12.16159 14.058706,19.08684 2.975128,5.28087 5.212697,10.91583 8.150004,16.21899 1.790083,3.34982 3.698124,6.63511 5.658043,9.88803 -2.221902,4.97904 -3.471659,10.35627 -3.96875,15.77539 -3.558998,-0.60422 -7.055305,-1.41241 -10.5625,-2.39453 -3.726454,-1.04972 -7.579656,-2.35162 -11.202165,-3.75664 -6.634922,-2.56043 -13.147806,-5.71236 -19.315413,-9.13203 -4.190958,-2.34629 -8.22401,-4.82114 -12.167969,-7.55664 1.807199,-8.6774 0.813257,-17.65216 -1.033143,-26.2342 -1.668407,-8.15632 -4.140038,-16.21029 -4.579099,-24.56839 -0.104798,-2.41245 -0.01264,-4.89019 0.38568,-7.37124 0.160807,0.15299 0.321614,0.30599 0.482422,0.45898 z m 77.646479,86.29102 c 11.06404,12.77673 24.46643,23.80864 39.99868,30.68184 11.96422,5.29748 25.30795,7.89163 38.36265,6.26738 5.37493,-0.65543 10.66782,-1.98374 15.71094,-3.95508 11.64907,10.55092 26.27747,17.91614 41.81789,20.47598 11.73939,1.89072 24.03838,0.69588 35.02558,-3.93935 7.43486,-3.07342 14.18492,-7.63984 20.14234,-13.01846 8.37457,-7.18415 17.69909,-13.2636 27.42084,-18.36828 5.40804,-2.8835 10.90535,-5.461 16.44101,-8.07958 -0.36968,2.55396 -0.98501,5.1732 -1.74644,7.49103 -0.88821,2.76975 -2.14501,5.53586 -3.55792,7.9242 -1.17147,2.02218 -2.66357,4.08665 -4.21322,5.93829 -5.9919,7.06488 -13.89415,12.18346 -21.74858,16.86084 -6.05805,3.63518 -12.29646,7.00191 -18.05611,11.10791 -3.72739,2.66652 -7.0571,5.8393 -10.80681,8.4775 -4.87341,3.55935 -10.05362,6.71848 -15.53889,9.24515 -5.06946,2.31743 -10.55927,4.18843 -16.12858,5.14208 -5.63755,0.99432 -11.55806,1.09288 -17.25131,0.0208 -9.93618,-1.82289 -19.30092,-5.92174 -28.28825,-10.34291 -10.24931,-5.07159 -20.48328,-10.19817 -31.04704,-14.59204 -5.61786,-2.4006 -11.34867,-4.51772 -17.05624,-6.69173 -7.01725,-2.75405 -13.8747,-5.95318 -20.34772,-9.82722 -0.71469,-0.45248 -1.66458,-1.01107 -2.38444,-1.48091 -8.23171,-5.25562 -15.93355,-11.74229 -21.14775,-20.10078 -0.96767,-1.54187 -1.96269,-3.41071 -2.71,-5.11558 -2.00516,-4.53097 -3.12169,-9.46185 -3.18359,-14.41992 -0.01,-0.0514 0.19342,0.17385 0.29296,0.29883 z" />
  <path
     d="m427.162,231.178c2.789-6.336 5.602-12.641 8.163-18.381 14.658-32.847 14.589-33.129 13.749-36.577-11.302-46.382-59.065-68.148-71.114-72.961-6.347-14.96-18.215-31.875-40.365-44.648-36.569-21.088-50.699-52.623-50.831-52.923-1.009-2.333-3.131-3.997-5.638-4.419-0.81-0.136-20.103-3.296-42.757,0.9-19.752,3.66-35.936,11.795-47.939,23.921-12.888-10.396-30.4-14.213-42.853-15.578-12.36-1.355-24.505-0.775-27.435,0.219-2.446,0.831-4.379,2.912-4.973,5.427-1.798,7.607-7.398,16.169-12.814,24.45-8.563,13.089-17.395,26.599-15.471,41.065-30.408,16.048-62.638,46.348-67.462,50.957-0.868,0.829-1.524,1.854-1.913,2.989-0.253,0.735-6.212,18.274-9.259,41.632-4.163,31.928-0.94,58.223 9.58,78.152 0.313,0.594 0.651,1.164 0.977,1.745-9.619,17.603-5.902,33.652-2.616,47.82 2.56,11.036 4.77,20.566 1.164,30.13-0.822,2.186-0.566,4.668 0.669,6.649 2.688,4.308 37.683,29.308 74.52,33.135 0.617,2.493 1.409,5.013 2.447,7.544 8.383,20.427 28.705,36.715 60.403,48.412 16.22,5.985 27.681,11.665 37.792,16.675 12.52,6.203 23.331,11.561 37.507,14.333 3.954,0.773 7.983,1.156 12.064,1.156 19.231,0 39.597-8.495 58.502-24.623 3.787-3.231 9.206-6.394 14.942-9.742 19.705-11.501 46.567-27.209 45.035-67.341 3.449-1.901 6.831-3.942 10.129-6.194 0.482,0.497 1.036,0.938 1.668,1.299 2.995,1.708 5.974,2.473 8.939,2.473 13.242,0 26.189-15.277 38.783-30.138 9.442-11.142 20.144-23.77 28.849-27.249 2.231-0.893 6.083-3.411 6.792-10.25 1.455-13.989-11.186-45.747-29.234-60.059zm6.887-53.156c-1.6,4.411-7.316,17.223-12.422,28.662-7.607,17.048-14.242,32.048-18.938,43.614-0.823-2.563-1.671-5.142-2.526-7.737-4.177-12.686-8.496-25.804-10.169-38.808-1.577-12.26-4.93-22.818-9.994-31.625 5.589-14.636 6.924-32.65 3.748-49.605 16.234,8.562 42.368,26.415 50.301,55.499zm-97.395,178.74c-15.204,7.148-32.437,15.25-49.942,30.619-22.58,19.823-51.168,13.02-69.792-2.231 5.028-3.65 9.76-8.068 14.124-13.223 17.586-2.211 35.613-8.518 52.602-18.707 30.895-18.526 54.455-47.706 64.641-80.056 13.14-41.734-0.854-87.459-22.971-116.601 7.865,0.19 19.539,1.941 29.618,9.364 11.048,8.137 17.839,21.507 20.184,39.74 1.854,14.424 6.401,28.232 10.799,41.586 6.815,20.699 13.254,40.25 6.936,56.203-13.085,33.036-32.111,41.98-56.199,53.306zm-238.721-42.757c-6.392-13.878-14.341-23.021-21.354-31.087-9.655-11.105-17.282-19.877-19.762-38.244-5.743-42.541 21.015-83.604 49.105-100.642 7.733-4.69 15.02-7.19 21.036-7.399-16.336,18.229-34.514,48.345-33.916,77.909 0.36,17.807 7.472,32.478 21.137,43.607 3.605,2.936 7.331,5.519 11.154,7.755-4.276,13.241-2.306,32.778 5.437,50.684 6.523,15.087 22.893,41.972 59.229,52.507 6.077,1.762 12.395,2.88 18.866,3.396-10.728,8.084-22.959,11.482-36.036,9.89-28.366-3.452-57.064-29.653-74.896-68.376zm39.521-240.346c12.075-9.142 37.039-21.709 68.552-3.168 22.813,13.423 44.93,18.518 62.7,22.611 24.465,5.635 37.465,9.27 42.473,24.18 3.338,9.942-3.218,16.481-6.278,18.886-15.477-11.181-32.054-14.51-46.736-9.174-7.56-6.965-16.559-12.534-26.796-16.44-30.624-11.687-65.788-6.346-91.108,13.456-9.326-3.951-21.05-3.01-33.627,2.695 0.603-18.352 15.178-41.205 30.82-53.046zm56.722,281.031c-30.431-8.824-44.162-31.389-49.639-44.054-6.524-15.089-7.6-29.593-5.44-38.365 3.312,1.155 6.676,2.069 10.082,2.735 7.886,19.593 28.123,35.353 51.551,39.767 4.567,0.861 9.129,1.285 13.659,1.285 23.833,0 46.752-11.742 64.423-33.44 20.452-25.113 39.39-59.615 5.219-104.507-2.031-14.532-7.095-27.543-14.769-38.45 13.759-1.671 26.42,7.605 33.292,13.94 25.772,23.762 44.573,73.295 31.425,115.057-9.1,28.899-30.257,55.032-58.048,71.697-27.174,16.297-56.973,21.519-81.755,14.335zm-48.076-216.053c21.065-18.62 53.184-24.272 79.922-14.069 10.696,4.082 27.172,13.338 36.658,33.281-11.936-8.005-25.73-13.001-40.097-14.269-18.932-1.667-36.747,3.588-48.891,14.427-22.046,19.677-30.125,43.861-22.166,66.35 5.637,15.93 18.964,28.66 33.589,33.025-15.122,5.476-38.157,8.118-61.464-10.861-10.093-8.219-15.346-19.08-15.612-32.279-0.404-19.986 12.798-53.274 38.061-75.605zm53.198,107.028c-4.466-3.636-7.247-8.794-7.833-14.522s1.094-11.343 4.73-15.808 8.794-7.247 14.522-7.833c0.747-0.077 1.492-0.114 2.234-0.114 4.939,0 9.69,1.683 13.573,4.845 9.218,7.507 10.609,21.113 3.103,30.331-3.637,4.465-8.794,7.247-14.522,7.833-5.725,0.586-11.343-1.096-15.807-4.732zm13.546,19.847c1.256,0 2.521-0.064 3.788-0.194 9.715-0.994 18.461-5.711 24.627-13.283 12.729-15.631 10.369-38.704-5.261-51.434-7.572-6.166-17.094-9.017-26.807-8.021-9.715,0.994-18.461,5.711-24.627,13.283-6.167,7.572-9.016,17.092-8.022,26.807 0.115,1.126 0.286,2.238 0.5,3.336-4.971-4.354-9.08-10.168-11.375-16.654-5.91-16.7 0.487-34.512 18.014-50.156 9.066-8.092 22.761-11.982 37.583-10.675 19.341,1.708 37.458,11.625 49.704,27.21 27.472,34.958 18.354,60.228-3.786,87.415-23.887,29.331-50.143,29.436-63.673,26.887-15.614-2.942-29.344-12.02-36.866-23.758 2.339-0.111 4.688-0.322 7.045-0.656 7.484-1.058 18.936-3.833 31.162-10.998 2.605,0.587 5.282,0.891 7.994,0.891zm27.847-248.516c14.656-2.776 28.017-2.017 34.247-1.391 5.28,10.018 21.706,36.707 55.164,56 24.742,14.268 34.262,34.504 37.891,48.968 3.45,13.754 2.859,26.952 0.616,37.224-1.52-1.395-3.108-2.717-4.78-3.948-15.693-11.559-33.839-12.633-43.435-12.217 5.279-6.871 9.099-16.931 5.003-29.125-7.913-23.561-28.957-28.408-53.324-34.021-17.642-4.064-37.638-8.67-58.46-20.922-7.5-4.413-14.703-7.387-21.559-9.25 9.853-16.538 26.168-27.063 48.637-31.318zm-125.782,31.824c5.075-7.759 10.293-15.736 13.299-24.025 10.478-0.479 37.206,0.402 52.783,12.95-1.696,2.576-3.257,5.271-4.67,8.09-21.327-0.9-38.058,8.402-47.919,15.865-3.987,3.018-7.738,6.408-11.207,10.066-4.755,0.178-9.935,1.347-15.349,3.246 1.128-7.923 6.952-16.85 13.063-26.192zm-83.759,93.374c4.207-3.914 17.644-16.169 33.594-28.177 17.129-12.896 29.564-19.855 38.438-23.511-8.693,14.943-13.019,31.265-10.99,44.624-30.506,21.677-56.505,65.154-50.241,111.552 1.141,8.454 3.273,15.396 6.009,21.372-7-5.061-12.587-11.563-16.846-19.62-19.834-37.524-3.281-95.576 0.036-106.24zm-.344,159.387c-2.495-10.759-4.711-20.33-1.745-30.306 9.241,9.898 21.216,16.94 35.791,21.016 0.136,0.156 0.272,0.313 0.407,0.469 6.664,7.665 13.556,15.59 19.049,27.52 3.353,7.281 7.099,14.204 11.164,20.712-0.101,0.177-0.2,0.355-0.288,0.542-2.196,4.682-3.879,10.954-4.187,18.052-25.521-3.582-49.19-18.193-57.974-24.5 2.819-11.788 0.264-22.805-2.217-33.505zm277.838,114.103c-6.331,3.695-12.312,7.186-17.116,11.285-19.366,16.52-39.945,23.681-57.953,20.158-12.199-2.385-21.699-7.092-33.726-13.052-10.447-5.177-22.289-11.045-39.259-17.307-27.208-10.04-45.092-23.883-51.719-40.034-3.277-7.986-3.341-15.119-2.547-20.339 5.078,6.371 10.502,12.14 16.197,17.197 15.178,13.478 31.946,21.666 48.494,23.681 2.677,0.326 5.334,0.487 7.965,0.487 8.364,0 16.469-1.636 24.12-4.815 0.093,0.097 0.181,0.197 0.28,0.29 11.755,10.984 27.18,18.542 42.319,20.734 3.211,0.465 6.383,0.696 9.515,0.696 15.198,0 29.36-5.446 41.394-16.011 15.911-13.969 31.425-21.263 46.428-28.317 1.048-0.493 2.093-0.985 3.136-1.478-1.81,25.974-19.94,36.559-37.528,46.825zm100.671-96.645c-6.738,7.952-15.973,18.852-22.653,23.014 7.621-8.187 14.452-18.725 20.134-33.074 4.281-10.807 4.431-21.893 2.526-33.29 0.528-0.768 0.934-1.636 1.15-2.602 1.088-4.87 5.289-15.429 10.429-27.486 12.612,12.302 20.721,35.652 20.673,43.064-11.256,5.591-21.922,18.176-32.259,30.374z"
     id="path1" />
  <path
     id="path1-2"
     style="fill:#ffc0cb;fill-opacity:1"
     d="m 260.85352,4.0683594 c -2.82246,0.030467 -5.78843,0.173849 -8.58008,0.3769531 -3.77817,0.2924452 -7.4367,0.7151115 -11.15625,1.328125 -3.80143,0.6397064 -7.8287,1.4864985 -11.56478,2.5417858 -3.93217,1.0936056 -7.66139,2.3727277 -11.45473,3.9582557 -9.20349,3.835125 -17.74209,9.329729 -24.83877,16.352182 -0.91702,0.881742 -1.79871,1.799237 -2.70032,2.696605 -1.32204,-1.087469 -2.66254,-2.216525 -3.98436,-3.154203 -6.37865,-4.673239 -13.77224,-7.927344 -21.2949,-10.089731 -6.56906,-1.909745 -13.3378,-3.075302 -20.14261,-3.72677 -1.04577,-0.07993 -2.21858,-0.199754 -3.30048,-0.262387 -4.72053,-0.320539 -9.3788,-0.406526 -14.12394,-0.207397 -2.29459,0.116666 -4.62992,0.207516 -6.85292,0.8233 -1.55839,0.640452 -2.46819,2.243159 -2.70516,3.849993 -2.22603,7.858678 -6.75599,14.763854 -11.09735,21.586251 -5.3597,8.318331 -11.144138,16.511565 -14.685776,25.821569 -0.518953,1.397429 -1.030509,3.035841 -1.40489,4.568844 -0.637252,2.526874 -1.006653,5.319641 -0.995501,7.804203 -0.02041,1.476315 0.206062,2.940442 0.369141,4.396484 -0.06577,1.386645 -1.21893,2.384636 -2.433582,2.850975 -11.642613,6.234549 -22.535633,13.834983 -33.006082,21.799663 -11.043674,8.47022 -21.625994,17.53593 -31.80919,27.02019 -0.952146,0.97945 -2.14084,1.84143 -2.524231,3.22074 -0.744189,2.29858 -1.422769,4.62035 -2.088652,6.94387 -4.16418,14.90206 -6.943088,30.2027 -8.130451,45.63331 -0.248242,3.45091 -0.4248029,7.07967 -0.4757085,10.54465 -0.1513822,8.04079 0.3162335,16.14457 1.5362555,24.15066 0.602484,3.8345 1.349508,7.50346 2.356401,11.27591 2.004578,7.51374 4.896498,14.81924 8.895552,21.50144 -1.23015,2.23846 -2.423881,4.50328 -3.371094,6.8789 -0.382105,0.96837 -0.834802,2.19391 -1.170308,3.28844 -1.903704,5.9384 -2.424642,12.29279 -1.944008,18.44153 0.780912,10.56392 4.262754,20.66687 5.842305,31.10108 0.938865,6.34631 0.867854,12.99661 -1.380332,19.0752 -0.609991,1.44188 -0.581446,3.26298 0.573067,4.43147 3.165385,2.96395 6.750759,5.45047 10.37702,7.81712 11.717662,7.56681 24.293437,13.70416 37.537151,18.08032 5.610293,1.83333 11.365634,3.32269 17.247166,4.3271 2.848836,0.50689 5.882448,0.84871 8.822236,1.1604 1.086563,4.64794 2.537803,9.23477 4.756139,13.47632 1.842102,3.6296 4.172502,7.1642 6.765342,10.38501 4.84064,6.03698 10.84099,11.26192 17.23749,15.68497 6.54061,4.51799 13.59684,8.32316 20.85295,11.56999 5.54023,2.52493 11.38628,4.65704 17.13354,6.83639 12.27113,4.7377 24.12254,10.47339 35.88478,16.33985 4.22563,2.08941 8.46122,4.11395 12.80921,5.96919 3.62979,1.54117 7.47191,2.99278 11.30281,4.16458 1.95525,0.60477 4.04365,1.13446 5.97649,1.60104 6.06625,1.45379 12.33772,2.10386 18.56974,1.67923 3.86285,-0.23555 7.98287,-0.85738 11.88545,-1.80954 7.21453,-1.73156 14.23414,-4.58917 20.68739,-8.10211 3.23212,-1.75905 6.35272,-3.67966 9.32296,-5.70623 3.86315,-2.61528 7.51757,-5.52186 11.07997,-8.52889 6.58887,-5.22386 14.14013,-9.00612 21.26902,-13.40872 9.09525,-5.5031 17.9524,-11.78382 24.64525,-20.15063 3.46037,-4.29436 6.37249,-9.24675 8.37966,-14.46726 3.22182,-8.31739 4.25691,-17.4031 3.88087,-26.2355 -0.0174,-0.5693 -0.0348,-1.13861 -0.0543,-1.70785 4.86596,-2.62364 9.58717,-5.5142 14.11329,-8.68945 1.35005,1.54255 2.85931,3.05927 4.85133,3.72364 4.12493,1.79772 8.95276,1.17378 12.88693,-0.82664 6.31985,-3.06564 11.42,-8.05066 16.25477,-13.04017 7.15194,-7.49641 13.59877,-15.7668 20.53904,-23.51558 4.8712,-5.44212 9.89689,-10.83699 15.80191,-15.17914 2.20822,-1.59174 4.62697,-2.86134 7.10284,-3.9735 2.67614,-1.638 3.69118,-4.94368 3.75849,-7.92689 0.12704,-5.14979 -1.0556,-10.27332 -2.54213,-15.12095 -1.14829,-3.76912 -2.50779,-7.38332 -4.10457,-11.01508 -2.37809,-5.35316 -5.23964,-10.55725 -8.5369,-15.46553 -3.20125,-4.73429 -6.87642,-9.21459 -11.2153,-13.01811 -1.11492,-1.10573 -2.80042,-1.85299 -3.20071,-3.49947 -0.14527,-1.00444 0.63733,-1.81173 0.91489,-2.72775 6.43174,-14.65858 13.12916,-29.17292 19.33012,-43.93116 0.75179,-1.80907 1.46702,-3.63873 1.97765,-5.5325 0.0611,-0.36384 0.27444,-0.82692 0.23825,-1.33429 -0.153,-1.8381 -0.88253,-3.56323 -1.31509,-5.34429 -1.68485,-5.62843 -4.05889,-11.099 -6.90136,-16.1667 -2.54469,-4.55514 -5.54625,-8.92181 -8.79524,-12.93597 -3.6818,-4.50852 -7.93426,-8.89237 -12.30436,-12.7582 -9.06635,-8.02826 -19.23489,-14.63139 -30.01786,-20.06369 -3.65643,-1.83369 -7.39993,-3.49208 -11.20122,-5.00233 C 370.06356,93.903656 361.9614,82.49846 351.67299,73.553735 346.17297,68.704906 340.05676,64.60328 333.6864,60.992499 314.52118,49.446871 298.1638,33.183011 286.76758,13.908203 285.42963,11.612942 284.25736,9.2229654 283.02148,6.875 282.08575,5.5688504 280.44225,5.1283108 278.91617,5.06723 272.91632,4.2688247 266.86383,4.0123666 260.85352,4.0683594 Z m 2.1914,8.0488286 c 4.65808,0.02736 9.31295,0.298103 13.94531,0.785156 8.03055,15.403588 19.26368,29.033228 32.36524,40.394531 3.73258,3.228437 7.8141,6.380026 11.84961,9.197266 4.33693,3.053341 8.89881,5.764077 13.4668,8.451171 12.67295,7.870368 23.43294,19.006921 30.19057,32.359418 8.57515,16.76299 10.94164,36.4634 7.21989,54.87264 -0.26942,1.18892 -0.38398,2.45396 -0.92414,3.5531 -0.93781,1.46171 -3.23026,1.28442 -4.20143,-0.0454 -5.8346,-5.59873 -12.96276,-9.78223 -20.59739,-12.40772 -1.55887,-0.52935 -3.34281,-1.06762 -5.02058,-1.48986 -7.3614,-1.89198 -15.03446,-2.44555 -22.59271,-2.05115 -1.09373,0.10768 -2.34048,-0.2376 -2.84179,-1.30664 -0.61813,-1.22224 0.0932,-2.61409 1,-3.48047 2.89871,-3.70171 5.19304,-7.96351 6.09928,-12.61077 1.38288,-6.36951 -0.11669,-13.02539 -2.89538,-18.81155 -2.22183,-4.7539 -5.49884,-9.00625 -9.5871,-12.302717 -6.26339,-5.158359 -14.00813,-8.028913 -21.68831,-10.339791 -10.33229,-3.028568 -20.93644,-4.991613 -31.34824,-7.710241 -13.72452,-3.490258 -27.26701,-8.037055 -39.78352,-14.73527 -4.99562,-2.566835 -9.70084,-5.684018 -14.86585,-7.920364 -4.34781,-1.956064 -8.88184,-3.548893 -13.53635,-4.756798 -0.72783,-0.198048 -1.73374,-0.290198 -1.96288,-1.176043 -0.27991,-0.943485 0.62288,-1.672612 0.97858,-2.475508 3.8772,-6.526246 8.68895,-12.541527 14.54301,-17.403643 9.77517,-8.216877 21.85456,-13.321429 34.2717,-15.967097 8.50366,-1.855597 17.22003,-2.620703 25.91568,-2.62224 z m -130.30859,9.685546 c 12.72793,0.11682 25.61582,1.762037 37.51108,6.474641 5.5537,2.234651 10.74515,5.372599 15.24868,9.322234 -2.68512,3.944179 -5.12364,8.058134 -7.19726,12.357422 -3.90689,-0.203326 -7.72271,-0.17269 -11.65039,0.22461 -8.20361,0.84263 -16.22971,3.324003 -23.55929,6.978864 -9.13197,4.521076 -17.27841,10.895751 -24.22392,18.325823 -1.17266,0.538816 -2.49568,0.238385 -3.73404,0.47226 -4.92865,0.471649 -9.66817,2.012443 -14.33431,3.576568 -1.800973,0.358992 -3.324586,-1.680843 -2.710532,-3.344462 0.454377,-2.797802 1.079858,-5.577016 2.157072,-8.207722 2.47527,-6.32939 6.22035,-12.047349 9.85399,-17.753827 5.64314,-8.704871 11.67734,-17.339016 15.16052,-27.196665 0.2112,-0.575612 0.30753,-1.312505 1.098,-1.07712 2.12656,-0.06235 4.25268,-0.155888 6.3804,-0.152626 z m 40.79883,36.236328 c 12.16602,0.0082 24.06635,4.030581 34.43963,10.233056 11.33236,6.623589 23.52089,11.706165 36.07302,15.507312 9.92738,3.065535 20.12864,5.300006 30.26777,7.679309 7.01044,1.691703 14.06364,3.385371 20.75822,6.111724 5.52644,2.240574 10.83969,5.448287 14.53768,10.219997 3.00866,3.8644 5.05568,8.51874 5.72412,13.37745 0.59539,5.06062 -1.07754,10.25505 -4.27958,14.18657 -1.48757,1.86078 -3.23521,3.55336 -5.18172,4.91235 -1.3899,0.52559 -2.77084,-0.31135 -3.79873,-1.18893 -2.37961,-1.64717 -4.64204,-3.07207 -7.19492,-4.43619 -6.07838,-3.22103 -12.75262,-5.46584 -19.64042,-5.97374 -0.72703,-0.0408 -1.76538,-0.10881 -2.5367,-0.0986 -4.02125,-0.0549 -8.21518,0.55928 -12.12294,1.80431 -1.25465,0.33731 -2.5978,1.20659 -3.88528,0.48761 -1.19004,-0.66091 -2.03004,-1.78466 -3.10742,-2.60352 -13.43175,-11.45482 -30.68197,-18.00006 -48.19752,-19.45614 -2.41186,-0.206 -4.94294,-0.31492 -7.36886,-0.30896 -12.81216,-0.0354 -25.63377,2.62319 -37.34963,7.81784 -5.26666,2.33209 -10.44105,5.2614 -15.18885,8.63082 -1.6445,1.16315 -3.23228,2.40375 -4.83069,3.62894 -4.62815,-2.22449 -9.82293,-3.18476 -14.94185,-2.8458 -7.13116,0.37678 -13.9444,2.86124 -20.35271,5.86957 -0.83521,0.37793 -1.67077,0.75507 -2.50622,1.13248 0.0604,-5.78544 0.41052,-11.63682 2.09318,-17.2068 3.45628,-12.10344 10.10599,-23.108964 18.24786,-32.630363 7.54306,-8.760077 16.95419,-16.05514 27.72563,-20.37812 7.16279,-2.907928 14.87836,-4.496758 22.61693,-4.472215 z m -64.05664,28.808594 c -3.25576,5.708932 -6.67135,11.363907 -9.08915,17.496924 -3.044669,7.47511 -5.113071,15.43636 -5.324917,23.53433 -0.02562,1.64219 0.01904,3.50282 0.190742,5.22226 0.129465,1.40837 0.347611,2.80622 0.549493,4.20547 -8.182448,5.65499 -15.518958,12.34861 -21.991316,19.88841 -16.746849,19.5293 -27.844024,44.44728 -29.282133,70.31775 -0.138384,2.54625 -0.192151,4.93032 -0.145049,7.47301 0.0923,5.8462 0.721201,11.96977 1.903332,17.72547 1.206972,6.05148 3.386607,11.86118 6.022995,17.42545 1.374526,3.07804 2.748981,6.15611 4.12303,9.23436 -4.470583,-3.41411 -9.090389,-6.62851 -13.480089,-10.14704 -8.727162,-7.03868 -15.0006,-16.76641 -18.879542,-27.2142 -4.391433,-11.86156 -6.01247,-24.58115 -6.13299,-37.17704 -0.08007,-15.83929 2.02877,-31.63713 5.526448,-47.06662 1.103878,-4.79506 2.363437,-9.69938 3.741564,-14.3326 0.326952,-0.95255 0.445545,-2.06087 1.074218,-2.85547 15.581786,-14.34156 31.961822,-27.88833 49.61635,-39.6165 8.435606,-5.575861 17.304052,-10.551167 26.706374,-14.307109 2.18902,-0.928482 4.37827,-1.856403 6.5679,-2.783417 -0.56575,0.992187 -1.13151,1.984375 -1.69726,2.976562 z m 88.95117,29.800784 c 16.52221,0.0369 33.16615,5.0518 46.46472,14.96826 9.29829,6.86912 16.72016,16.19657 21.48123,26.71977 1.62321,3.3385 3.24622,6.67709 4.87045,10.01509 -6.2025,-4.04051 -12.21199,-8.41694 -18.7732,-11.87332 -3.46919,-1.78268 -7.07063,-3.33131 -10.70026,-4.60458 -2.36666,-0.83106 -4.6748,-1.52369 -7.15758,-2.14867 -13.31316,-3.3345 -27.64563,-3.3668 -40.70182,1.10566 -7.29798,2.48814 -14.10881,6.48108 -19.6683,11.84315 -8.6958,8.13214 -16.05506,18.02802 -19.80617,29.42471 -1.73379,5.25747 -2.63655,10.79948 -2.54423,16.33899 0.0322,1.6089 0.13559,3.43372 0.35862,5.11418 1.08314,8.78678 4.68171,17.20057 10.07302,24.20418 0.79552,1.01622 1.76011,2.20522 2.69768,3.22403 4.56755,5.02509 10.11953,9.22076 16.3521,11.95133 1.47177,0.61549 2.79656,1.10567 4.3259,1.61182 1.3268,0.48514 2.6614,0.77403 3.95848,1.30858 0.96144,0.48327 1.45693,1.62149 1.12678,2.64643 -0.30487,1.43306 -1.90448,1.7821 -3.08673,2.19884 -8.95161,3.33538 -18.53985,5.23182 -28.1162,4.65282 -9.8355,-0.53022 -19.49451,-3.51654 -27.99495,-8.47686 -5.66517,-3.27691 -10.98316,-7.232 -15.48748,-11.9954 -6.32643,-6.8443 -10.352,-15.75373 -11.32058,-25.02354 -1.14606,-9.94804 0.83507,-19.96481 3.85491,-29.41835 4.19209,-12.99556 10.71953,-25.19407 18.84786,-36.14731 5.96636,-7.96359 12.85185,-15.29244 20.74336,-21.3758 14.33319,-10.77641 32.33017,-16.30887 50.20239,-16.26401 z m 182.62695,1.13672 c 6.73834,3.5188 13.37914,7.26079 19.58337,11.66822 11.54495,8.15179 21.91987,18.274 29.11976,30.51537 3.45118,5.8735 6.10949,12.21479 7.82226,18.81055 -3.84115,9.90366 -8.34881,19.52963 -12.61704,29.25054 -7.38343,16.55166 -14.74391,33.12106 -21.55874,49.91547 -0.27256,0.49163 -0.81277,0.87407 -1.38219,0.63813 -0.97321,-0.18675 -0.99458,-1.38594 -1.30922,-2.14789 -4.80636,-15.30073 -10.5464,-30.38809 -13.43935,-46.2141 -0.89656,-5.19648 -1.42067,-10.46124 -2.66611,-15.5945 -0.44926,-1.8688 -0.98636,-3.92584 -1.58927,-5.83418 -1.69612,-5.51129 -4.01835,-10.83227 -6.96152,-15.79277 1.68294,-4.24521 2.9668,-8.54709 3.90235,-13 0.20131,-1.05323 0.47014,-2.36131 0.64986,-3.52096 0.71921,-4.27043 1.09841,-8.54977 1.19975,-12.83451 0.15216,-6.01324 -0.30004,-12.08368 -1.27963,-18.0766 -0.49385,-2.9768 -1.06377,-5.94043 -1.57975,-8.91363 0.70182,0.37695 1.40365,0.7539 2.10547,1.13086 z m -251.47266,15.81445 c 1.89765,0.13357 2.80192,2.74635 1.48829,4.08008 -11.72021,12.86518 -21.46679,27.64057 -27.95998,43.81991 -3.867394,9.76775 -6.46256,20.13826 -6.715806,30.67618 -0.0072,1.21389 -0.02995,2.68643 0.03143,3.92571 0.318508,10.01513 3.227446,20.04993 8.986589,28.31007 3.90118,5.69674 9.0844,10.55442 14.61284,14.53571 2.98821,2.1759 6.15355,4.08946 9.33204,5.9707 -0.87899,2.48468 -1.59275,4.98906 -2.04121,7.49082 -0.63607,3.47421 -0.89305,6.99071 -0.8416,10.46968 0.0306,2.94662 0.26608,5.95051 0.65693,8.89443 0.85532,6.48524 2.46506,12.86414 4.71025,19.0064 0.6687,1.81695 1.46467,3.80147 2.28304,5.6419 1.72653,3.93058 3.81897,7.86969 6.10954,11.58466 1.78723,2.88654 3.87014,5.86397 5.98299,8.51979 7.90661,10.02875 18.01822,18.33326 29.49829,23.95182 10.45327,5.18053 21.91709,8.26837 33.54585,9.15502 2.93365,0.26983 5.86725,0.54011 8.80099,0.80892 -6.03888,4.525 -11.98615,9.38817 -19.03156,12.28218 -9.78083,4.19548 -20.85189,5.13004 -31.24753,2.95049 -12.53332,-2.52171 -24.01464,-8.87459 -33.87683,-16.8719 -13.0326,-10.56803 -23.50128,-24.00869 -31.87286,-38.48045 -3.278354,-5.64519 -6.110107,-11.53167 -8.896911,-17.42954 -0.537203,-1.07828 -1.103537,-2.15258 -1.688499,-3.20662 -1.414667,-2.57049 -3.024568,-5.15128 -4.627938,-7.52779 -4.123077,-6.16084 -8.952373,-11.79905 -13.835395,-17.36159 -5.814012,-6.6594 -11.560132,-13.60509 -15.073551,-21.80154 -4.112296,-9.48775 -5.490468,-19.94011 -5.464083,-30.21492 0.16196,-19.41179 6.365637,-38.50636 16.462497,-54.99113 8.630436,-14.05905 20.050973,-26.59433 34.0228,-35.48196 6.29086,-3.94183 13.20554,-7.15723 20.59861,-8.26758 2.00566,-0.25682 4.03226,-0.40567 6.05078,-0.43945 z m 142.69532,2.96484 c 8.2629,-0.013 16.2056,3.20413 23.04275,7.66327 10.79525,7.08124 19.36738,17.08001 26.24049,27.91183 11.23048,17.89374 18.13023,38.51859 19.7601,59.58966 1.10872,14.84516 -0.68728,29.99696 -6.01271,43.94067 -9.50668,25.66937 -27.62904,47.7761 -50.05993,63.29496 -16.10879,11.14128 -34.61265,19.08955 -54.05605,21.9092 -14.24417,2.03927 -29.04731,1.10945 -42.66084,-3.72244 -13.39993,-4.6856 -25.55495,-12.97887 -34.60074,-23.94111 -10.86037,-13.00533 -17.78173,-29.33511 -19.25312,-46.23616 -0.453,-5.85175 -0.11622,-11.83889 1.56098,-17.48019 0.44241,-0.98888 1.74515,-0.87372 2.52149,-0.36133 4.17792,1.43928 8.4554,2.62982 12.81055,3.41797 1.39081,3.66489 3.14912,7.17781 5.25043,10.43164 3.00512,4.676 6.8755,9.10478 11.15152,12.83902 12.43932,10.85853 28.79325,17.11014 45.30312,17.33676 1.09059,0.008 2.28983,0.007 3.39993,-0.0365 3.81734,-0.13899 7.52943,-0.58386 11.3313,-1.34874 9.42409,-1.88461 18.50585,-5.80713 26.55979,-11.13039 2.90152,-1.92143 5.6814,-4.0069 8.27774,-6.20205 4.39954,-3.70603 8.491,-7.85778 12.23182,-12.3284 2.60269,-3.12908 5.14979,-6.42485 7.50802,-9.70393 5.63563,-7.88702 10.49451,-16.35182 13.51651,-25.61422 1.59196,-4.88093 2.62556,-9.9486 2.99521,-15.07132 0.0214,-0.51188 0.0893,-1.3398 0.10309,-1.85455 0.22579,-5.4119 -0.35037,-10.96875 -1.57575,-16.16108 -0.89467,-3.84924 -2.15831,-7.60557 -3.67188,-11.25391 -0.58902,-1.40466 -1.30377,-2.99585 -2.0189,-4.43855 -2.53403,-5.17035 -5.59591,-10.0683 -8.95375,-14.74113 -0.73405,-1.06971 -1.68875,-2.18351 -2.39723,-3.31185 -0.51535,-3.83251 -1.27089,-7.76354 -2.25742,-11.50473 -1.01997,-3.8889 -2.25882,-7.58175 -3.82151,-11.32047 -2.56826,-6.21582 -6.02904,-12.02669 -9.98333,-17.45563 -0.52537,-0.7483 -1.05046,-1.4968 -1.57567,-2.24521 3.10891,-0.30691 6.20608,-0.81259 9.33399,-0.8711 z m 48.70703,16.91797 c 3.71314,0.18999 7.44358,0.22171 11.13634,0.71587 10.38793,1.28604 20.59012,5.37872 28.37715,12.47941 6.94967,6.31925 11.71221,14.74396 14.56448,23.62928 1.98825,6.0596 3.00536,12.3747 3.8382,18.68022 2.81924,18.02059 9.69855,35.13553 14.90805,52.59874 2.94017,10.02855 5.43102,20.41134 4.88278,30.93793 -0.28127,5.73414 -1.86091,11.34874 -4.29289,16.53286 -4.96496,11.56629 -11.96375,22.44955 -21.48638,30.78702 -8.79312,7.77156 -19.28104,13.26199 -29.83317,18.23131 -12.13216,5.77517 -24.44327,11.31688 -35.7429,18.65003 -6.50708,4.15386 -12.69191,8.80358 -18.51226,13.87415 -8.84183,7.90566 -20.45475,12.7792 -32.35205,13.05164 -13.02973,0.39744 -25.90635,-4.06453 -36.61976,-11.33075 -3.05388,-2.06495 -5.91662,-4.39342 -8.74454,-6.75372 3.05675,-2.17602 6.10618,-4.37535 8.9121,-6.87305 0.99693,-0.88652 2.15376,-1.94418 3.16366,-2.95128 2.10442,-2.05695 4.07363,-4.2475 5.96134,-6.5038 2.80288,-0.34805 5.57826,-0.76678 8.38868,-1.29297 3.95446,-0.75105 8.02573,-1.71307 11.94014,-2.88017 15.17432,-4.46066 29.65988,-11.7476 42.551,-21.02203 12.85276,-9.25183 24.26687,-20.53713 33.5248,-33.35423 5.49305,-7.57865 10.30352,-15.84456 14.12273,-24.37638 2.4149,-5.40929 4.41831,-10.83661 6.03299,-16.52257 2.44889,-8.56486 3.71937,-17.44591 4.01388,-26.34266 0.0624,-2.39124 0.072,-5.02308 -0.0114,-7.44181 -0.0793,-2.65652 -0.27128,-5.22562 -0.50031,-7.84921 -0.16342,-1.61107 -0.36772,-3.43825 -0.59844,-5.12715 -2.50035,-18.14027 -8.71763,-35.74159 -17.98592,-51.52427 -3.13459,-5.37643 -6.83397,-10.57739 -10.64804,-15.51541 -0.78369,-0.59165 -0.80059,-1.99546 0.18638,-2.36528 0.26142,-0.12122 0.53824,-0.14812 0.82337,-0.14172 z m -105.33399,1.89453 c 19.57239,0.0751 38.8378,8.55539 52.44316,22.5644 5.85892,6.03454 10.75871,12.95552 14.91638,20.25159 4.92731,8.85016 8.2897,18.79212 8.32463,29.0004 0.0799,10.00364 -2.9933,19.82675 -7.75601,28.55292 -4.63223,8.63333 -10.59507,16.48077 -16.99179,23.87211 -8.66607,9.73978 -19.48392,17.83387 -31.89798,22.07594 -14.32292,4.95281 -30.44702,4.47012 -44.42859,-1.39173 -11.05832,-4.54162 -20.92944,-12.29975 -27.27599,-22.5013 -0.89753,-1.35512 -1.79504,-2.71024 -2.69318,-4.06495 5.5181,-0.33113 11.03102,-0.48472 16.44531,-1.59571 9.26795,-1.79417 18.19216,-5.2373 26.34304,-9.98648 1.11905,-0.78013 2.5325,-0.30584 3.75899,-0.074 2.07894,0.40643 4.20696,0.5412 6.32375,0.5371 0.73309,-0.009 1.76374,-0.0509 2.60917,-0.13509 4.19635,-0.36901 8.45482,-1.63108 12.11544,-3.49968 1.51164,-0.77419 2.9064,-1.61793 4.32121,-2.63812 2.4089,-1.72331 4.79001,-4.07442 6.60848,-6.38141 1.74961,-2.24103 3.21605,-4.71996 4.3183,-7.26786 2.47595,-5.63386 3.25413,-11.96099 2.36334,-18.04073 -0.0683,-0.46681 -0.15598,-1.00019 -0.26172,-1.52787 -1.78267,-9.24859 -7.72322,-17.60372 -15.9155,-22.26725 -3.38515,-1.98199 -7.27716,-3.34176 -11.05716,-3.97051 -2.25505,-0.38424 -4.75787,-0.5359 -7.04568,-0.41408 -6.73756,0.30843 -13.34992,2.73911 -18.68088,6.87111 -1.00798,0.78539 -2.16345,1.77483 -3.12477,2.75377 -5.28299,5.26829 -8.71302,12.34888 -9.52171,19.76967 -0.1173,1.07532 -0.19391,2.34522 -0.19336,3.43359 -0.0672,3.98808 0.92465,8.01929 1.6192,11.98206 0.28794,1.55933 0.5755,3.11873 0.86322,4.6781 -4.01043,-3.67804 -8.29263,-7.09009 -11.91165,-11.17117 -7.23509,-8.31428 -11.1761,-19.54587 -10.20359,-30.57112 0.79477,-9.34309 4.88613,-18.1444 10.50483,-25.5524 4.0316,-5.24127 8.64278,-10.08248 13.92187,-14.08089 8.97452,-6.47369 20.20714,-9.21696 31.15924,-9.21036 z m -2.81054,49.11524 c 9.14651,-0.0792 18.06517,5.38042 22.18701,13.54105 3.88202,7.49319 3.69626,16.97339 -0.6793,24.22024 -3.95738,6.72719 -11.18732,11.45484 -18.98189,12.17595 -7.65395,0.82455 -15.61638,-2.11509 -20.84477,-7.7783 -5.33139,-5.64537 -7.80143,-13.8527 -6.38958,-21.49746 1.34651,-7.65592 6.43483,-14.57534 13.43274,-18.0026 3.4865,-1.74057 7.37942,-2.6543 11.27579,-2.65888 z m 207.95703,36.8125 c 2.94369,2.81349 5.75218,5.78139 8.16688,9.06768 4.79538,6.43803 8.45061,13.6591 11.44664,21.08588 1.84596,4.80283 3.49117,9.73031 4.26526,14.8314 0.24937,1.6778 0.29886,3.37598 0.27942,5.06973 -7.1107,3.27619 -13.09384,8.49004 -18.50452,14.06037 -11.228,11.43656 -20.48012,24.69104 -32.25158,35.61029 -1.99182,1.79698 -4.06471,3.57912 -6.45148,4.82355 -2.9074,1.02594 -5.81486,2.05169 -8.72211,3.07805 1.5148,-2.58005 2.89529,-5.08452 4.36609,-7.67939 1.16872,-1.92983 2.93757,-3.39914 4.26947,-5.21085 6.21335,-7.61987 11.06115,-16.40597 14.86451,-25.51569 1.86244,-4.35392 3.28207,-8.91657 3.87133,-13.62644 0.65456,-4.80677 0.61217,-9.7333 0.12035,-14.49022 -0.17261,-2.06983 -0.58029,-4.24215 -0.84136,-6.36608 -0.10301,-0.55585 0.0321,-1.03369 0.46289,-1.4082 1.11468,-1.66717 1.17911,-3.76038 1.92792,-5.58492 2.85092,-8.68929 6.53756,-17.06958 10.05451,-25.50231 0.48661,-1.15012 0.97343,-2.30015 1.46093,-3.44988 0.40495,0.40234 0.8099,0.80468 1.21485,1.20703 z M 28.435547,267.33984 c 1.577194,-0.004 2.341166,1.55387 3.36602,2.48272 6.562379,6.95976 14.75447,12.4306 23.623434,16.13853 2.194088,0.92633 4.312058,1.70784 6.597998,2.45494 1.537273,0.51039 3.094485,0.95734 4.652782,1.39842 7.144765,8.10866 14.171215,16.50687 19.019151,26.23739 2.346655,4.68536 4.452651,9.49212 7.013707,14.06923 2.089342,3.86015 4.335212,7.63998 6.652689,11.33401 -3.591844,6.22133 -4.859594,13.47897 -5.111267,20.57639 -0.03442,0.70042 -0.06799,1.40088 -0.101623,2.10134 -9.004736,-1.05892 -17.867492,-3.2165 -26.38333,-6.32054 -10.656396,-3.88134 -20.850053,-8.99999 -30.451359,-15.02521 -2.838347,-1.78334 -5.606033,-3.6763 -8.327421,-5.63276 1.007161,-3.84476 1.631532,-7.79833 1.675781,-11.77735 0.01382,-1.18911 -0.04034,-2.63248 -0.114108,-3.91761 -0.202373,-3.06824 -0.63786,-6.12161 -1.201968,-9.05067 -1.856318,-9.93648 -5.087871,-19.6992 -5.303064,-29.88133 -0.03831,-4.65245 0.678125,-9.32537 2.179687,-13.72656 0.423176,-0.82278 1.257162,-1.47742 2.212891,-1.46094 z m 77.505863,84.64063 c 1.55443,0.48439 2.23253,2.11172 3.28494,3.21142 10.06302,12.53028 22.23843,23.61208 36.5692,31.05055 6.3166,3.28101 13.09058,5.81713 20.01428,7.25024 2.10334,0.43795 4.38154,0.79912 6.5296,1.02055 1.98074,0.21582 4.08675,0.3364 6.08361,0.34533 3.84946,0.0223 7.55841,-0.30402 11.37384,-1.00504 1.88634,-0.3533 4.0555,-0.87178 5.95517,-1.44972 2.723,-0.79733 5.40654,-1.84102 8.04678,-2.97607 7.10407,7.25162 15.77497,12.89732 25.10863,16.84254 4.0759,1.70754 8.29976,3.06435 12.61793,4.00707 1.56143,0.33328 3.34897,0.6652 5.01601,0.8906 2.34613,0.33915 5.07453,0.54797 7.42344,0.59183 4.30895,0.0665 8.65848,-0.29833 12.81889,-1.17346 4.77425,-0.98611 9.43503,-2.61253 13.75545,-4.745 3.43086,-1.68803 6.56843,-3.67473 9.66431,-5.97556 4.11375,-3.1381 7.84001,-6.74313 12.02681,-9.79305 9.89155,-7.49811 20.78599,-13.55923 31.98297,-18.86632 5.22762,-2.51242 10.48354,-4.96548 15.72814,-7.44271 -0.37899,6.90852 -0.95191,13.93618 -3.44616,20.45522 -3.271,9.09263 -9.65091,16.80361 -17.21511,22.69534 -9.54522,7.59159 -20.66973,12.7888 -30.75397,19.57431 -4.06895,2.79068 -7.64603,6.21552 -11.6608,9.07934 -9.95586,7.29896 -21.24217,13.1176 -33.44573,15.44257 -7.55241,1.45473 -15.40941,1.40972 -22.90376,-0.36942 -10.77117,-2.38042 -20.80549,-7.13751 -30.62182,-12.03604 -9.96326,-4.94193 -19.99615,-9.83551 -30.28668,-13.97992 -7.62182,-3.15832 -15.48793,-5.70952 -22.95075,-9.24882 -10.72581,-5.0005 -21.04335,-11.24916 -29.44184,-19.67115 -6.52586,-6.53584 -11.72544,-14.642 -13.80258,-23.71857 -1.31659,-5.51684 -1.41401,-11.28575 -0.46361,-16.86928 0.0935,-1.04689 0.27213,-2.27598 1.29945,-2.82819 0.49701,-0.2844 1.13377,-0.4219 1.69336,-0.30859 z" />
</svg>
